<svg xmlns="http://www.w3.org/2000/svg" width="16" height="14.4" viewBox="0 0 16 14.4"><defs><style>.a{fill:#6871a2;}</style></defs><path class="a" d="M16.4,11.144V9.4a6.4,6.4,0,1,0-12.8,0v1.744A2.4,2.4,0,0,0,2,13.4V15a2.4,2.4,0,0,0,2.4,2.4H6.8a.8.8,0,0,0,.8-.8V11.8a.8.8,0,0,0-.8-.8H5.2V9.4a4.8,4.8,0,1,1,9.6,0V11H13.2a.8.8,0,0,0-.8.8v4.8a.8.8,0,0,0,.8.8h2.4A2.4,2.4,0,0,0,18,15V13.4a2.4,2.4,0,0,0-1.6-2.256ZM6,12.6v3.2H4.4a.8.8,0,0,1-.8-.8V13.4a.8.8,0,0,1,.8-.8ZM16.4,15a.8.8,0,0,1-.8.8H14V12.6h1.6a.8.8,0,0,1,.8.8Z" transform="translate(-2 -3)"/></svg>